<svg height="26" viewBox="0 0 26 26" width="26" xmlns="http://www.w3.org/2000/svg"><path d="m0 0h26v26h-26z" fill="#fff" opacity="0"/><g transform="translate(89)"><path d="m-75.989 22.465a.633.633 0 0 1 -.448-.185l-8.5-8.5a4.884 4.884 0 0 1 -1.439-3.475 4.89 4.89 0 0 1 1.439-3.477 4.892 4.892 0 0 1 3.478-1.438 4.882 4.882 0 0 1 3.475 1.44l2.093 1.921 1.9-1.924a4.882 4.882 0 0 1 3.474-1.437 4.885 4.885 0 0 1 3.517 1.48 4.974 4.974 0 0 1 -.1 6.968l-8.444 8.441a.626.626 0 0 1 -.445.186z" fill="#fed453"/><g fill="#4f3f68"><path d="m-66.555 6.433a5.5 5.5 0 0 0 -3.962-1.668 5.5 5.5 0 0 0 -3.918 1.623l-1.174 1.188a.622.622 0 0 0 -.258.148l-.1.1-1.571-1.44a5.5 5.5 0 0 0 -3.917-1.623 5.5 5.5 0 0 0 -3.918 1.623 5.5 5.5 0 0 0 -1.627 3.922 5.5 5.5 0 0 0 1.623 3.917l8.5 8.5a1.258 1.258 0 0 0 .89.368 1.254 1.254 0 0 0 .89-.368l8.444-8.443a5.6 5.6 0 0 0 .098-7.847zm-.984 6.962-8.461 8.443-8.5-8.5a4.258 4.258 0 0 1 -1.257-3.033 4.26 4.26 0 0 1 1.257-3.034 4.26 4.26 0 0 1 3.034-1.257 4.259 4.259 0 0 1 3.033 1.257l.019.019.02.018 1.531 1.4-2.022 2.024a.623.623 0 0 0 0 .884.623.623 0 0 0 .441.183.622.622 0 0 0 .444-.179l2.061-2.061.064.059.847-.857 1.472-1.489a4.262 4.262 0 0 1 3.034-1.257 4.262 4.262 0 0 1 3.069 1.292 4.345 4.345 0 0 1 -.086 6.093z"/><path d="m-68.48 12.018a.5.5 0 0 1 -.5-.47 3.2 3.2 0 0 0 -.93-2.068 3.219 3.219 0 0 0 -1.4-.822.5.5 0 0 1 -.348-.615.5.5 0 0 1 .616-.348 4.212 4.212 0 0 1 1.842 1.078 4.2 4.2 0 0 1 1.223 2.714.5.5 0 0 1 -.469.53z"/></g></g></svg>