<svg height="26" viewBox="0 0 26 26" width="26" xmlns="http://www.w3.org/2000/svg"><path d="m0 0h26v26h-26z" fill="#fff" opacity="0"/><g transform="translate(60.625 -1.554)"><path d="m-39.206 16.407v4.339a1.6 1.6 0 0 1 -1.563 1.633h-15.231a1.6 1.6 0 0 1 -1.562-1.633v-12.046a1.6 1.6 0 0 1 1.562-1.634h15.229a1.6 1.6 0 0 1 1.565 1.634v4.339" fill="#fed453"/><path d="m-40.511 23.056h-15.863a2.254 2.254 0 0 1 -2.251-2.256v-12a2.253 2.253 0 0 1 2.251-2.252h15.863a2.254 2.254 0 0 1 2.252 2.252v12a2.254 2.254 0 0 1 -2.252 2.256zm-15.863-15.256a1 1 0 0 0 -1 1v12a1 1 0 0 0 1 1h15.863a1 1 0 0 0 1-1v-12a1 1 0 0 0 -1-1z" fill="#4f3f68"/><path d="m-41.948 12.757h3.948v4.1h-3.948a1.891 1.891 0 0 1 -1.678-2.048 1.891 1.891 0 0 1 1.678-2.052z" fill="#fff"/><g fill="#4f3f68"><path d="m-38 17.479h-3.948a2.512 2.512 0 0 1 -2.3-2.673 2.512 2.512 0 0 1 2.3-2.674h3.948a.625.625 0 0 1 .625.625v4.1a.625.625 0 0 1 -.625.622zm-3.948-4.1c-.571 0-1.053.652-1.053 1.424s.482 1.423 1.053 1.423h3.323v-2.844z"/><path d="m-53.627 19.053a.625.625 0 0 1 -.625-.625v-6.992a.625.625 0 0 1 .625-.625.625.625 0 0 1 .625.625v6.992a.626.626 0 0 1 -.625.625z"/><path d="m-50.131 19.053a.625.625 0 0 1 -.625-.625v-6.992a.625.625 0 0 1 .625-.625.625.625 0 0 1 .625.625v6.992a.626.626 0 0 1 -.625.625z"/></g></g></svg>