<svg height="26" viewBox="0 0 26 26" width="26" xmlns="http://www.w3.org/2000/svg"><path d="m0 0h26v26h-26z" fill="#fff" opacity="0"/><g transform="translate(-.119 -.245)"><path d="m9.54 15.2-2.357-8h16.361l-2.409 8z" fill="#fed453"/><g fill="#4f3f68"><path d="m21.607 15.362 2.373-8.049a.515.515 0 0 0 .02-.14.464.464 0 0 0 -.456-.472h-16.144l-1.171-4.007a.625.625 0 0 0 -.6-.449h-2.885a.625.625 0 0 0 0 1.25h2.417l4.517 15.428a2.469 2.469 0 1 0 3.948 1.977 2.431 2.431 0 0 0 -.337-1.221h5.071a2.44 2.44 0 0 0 -.338 1.224 2.476 2.476 0 1 0 2.478-2.477c-.032 0-.062.008-.094.009s-.031-.009-.048-.009h-9.52l-.8-2.729h11.133a.459.459 0 0 0 .436-.335zm-9.231 5.538a1.225 1.225 0 1 1 -1.225-1.221 1.226 1.226 0 0 1 1.225 1.221zm9.347 0a1.226 1.226 0 1 1 -1.223-1.224 1.227 1.227 0 0 1 1.223 1.224zm-11.809-6.2-2.063-7h14.972l-2.062 7z"/><path d="m20.344 10.433h-9.751a.625.625 0 0 1 0-1.25h9.751a.625.625 0 1 1 0 1.25z"/><path d="m18.844 13.208h-6.751a.625.625 0 0 1 0-1.25h6.751a.625.625 0 0 1 0 1.25z"/></g></g></svg>
