<svg height="26" viewBox="0 0 26 26" width="26" xmlns="http://www.w3.org/2000/svg"><path d="m0 0h26v26h-26z" fill="#fff" opacity="0"/><path d="m8.145 7.5a4.594 4.594 0 0 1 4.6-4h.555a4.639 4.639 0 0 1 4.011 2.3l.048.09c.13.239.327.6.233.774-.045.083-.272.348-1.359.469-.261-.265-.809-.8-1.585-1.472a.5.5 0 0 0 -.327-.122h-.044a.5.5 0 0 0 -.343.183c-.919 1.132-2.815 1.714-5.789 1.778z" fill="#fed453"/><path d="m3.716 22.5h-.072a.134.134 0 0 1 -.144-.1c.231-1.9 1.612-8.314 9.5-8.314 7.907 0 9.27 6.414 9.5 8.38a.525.525 0 0 1 -.143.038z" fill="#fed453"/><path d="m15.319 13.8a5.636 5.636 0 0 0 2.593-7.929c-.058-.116-.119-.224-.168-.317a5.134 5.134 0 0 0 -4.444-2.554h-.553c-.091 0-.176.022-.266.026l-.11.011a5.122 5.122 0 0 0 -3.988 2.363 5.637 5.637 0 0 0 2.3 8.395c-6.267 1.131-7.461 6.753-7.683 8.605a.627.627 0 0 0 .644.6h18.64a.612.612 0 0 0 .074 0 .631.631 0 0 0 .642-.537.566.566 0 0 0 0-.059c-.217-1.856-1.411-7.48-7.681-8.604zm-6.141-7.787a4.62 4.62 0 0 1 7.887.427 2.765 2.765 0 0 1 -.653.164c-.305-.3-.8-.768-1.437-1.323a1 1 0 0 0 -.654-.243.877.877 0 0 0 -.088 0 1 1 0 0 0 -.688.366c-.747.92-2.357 1.446-4.791 1.566a3.917 3.917 0 0 1 .424-.957zm-.827 2.636a4.64 4.64 0 0 1 .067-.661c3.661-.116 5.158-1.033 5.9-1.95a25.183 25.183 0 0 1 1.721 1.615 4.636 4.636 0 0 0 1.4-.292 4.572 4.572 0 0 1 .2 1.288 4.649 4.649 0 0 1 -9.3 0zm-4.283 13.351c.432-2.592 2.153-7.418 8.932-7.418 6.8 0 8.5 4.827 8.93 7.414z" fill="#4f3f68"/></svg>
