<svg xmlns="http://www.w3.org/2000/svg" width="26" height="26" viewBox="0 0 26 26">    <defs>        <style>            .cls-1{opacity:0}.cls-2{fill:#fff}.cls-3{fill:#4f3f68}        </style>    </defs>    <g id="search-hover" transform="translate(-799 -434)">        <g id="Group_4379" class="cls-1" data-name="Group 4379" transform="translate(799 434)">            <path id="Rectangle_2366" d="M0 0h26v26H0z" class="cls-2" data-name="Rectangle 2366"/>        </g>        <g id="Group_4019" data-name="Group 4019" transform="translate(798.348 434.343)">            <g id="Ellipse_453" data-name="Ellipse 453" transform="translate(4.652 5.068)">                <path id="Path_4452" d="M12.032 6.107a6.34 6.34 0 1 1-6.341 6.34 6.347 6.347 0 0 1 6.341-6.34m0-1.039a7.38 7.38 0 1 0 7.379 7.379 7.38 7.38 0 0 0-7.379-7.379z" class="cls-3" data-name="Path 4452" transform="translate(-4.652 -5.068)"/>            </g>            <g id="Path_4018" data-name="Path 4018" transform="translate(7.591 8.008)">                <path id="Path_4453" d="M8 12.2a.52.52 0 0 1-.52-.52 3.794 3.794 0 0 1 3.79-3.78.52.52 0 0 1 0 1.039 2.754 2.754 0 0 0-2.751 2.749A.519.519 0 0 1 8 12.2z" class="cls-3" data-name="Path 4453" transform="translate(-7.479 -7.896)"/>            </g>            <g id="Line_68" data-name="Line 68" transform="translate(17.44 16.142)">                <path id="Path_4454" d="M21.679 20.169a.512.512 0 0 1-.326-.115l-4.206-3.408a.52.52 0 1 1 .654-.808l4.2 3.407a.52.52 0 0 1-.326.924z" class="cls-3" data-name="Path 4454" transform="translate(-16.954 -15.721)"/>            </g>        </g>    </g></svg>